<?xml version="1.0" encoding="utf-8"?>
<!-- Generator: Adobe Illustrator 19.2.0, SVG Export Plug-In . SVG Version: 6.00 Build 0)  -->
<svg version="1.1" id="Layer_1" xmlns="http://www.w3.org/2000/svg" xmlns:xlink="http://www.w3.org/1999/xlink" x="0px" y="0px"
	 viewBox="0 0 629 218.8" style="enable-background:new 0 0 629 218.8;" xml:space="preserve">
<metadata><?xpacket begin="﻿" id="W5M0MpCehiHzreSzNTczkc9d"?>
<x:xmpmeta xmlns:x="adobe:ns:meta/" x:xmptk="Adobe XMP Core 5.6-c111 79.158366, 2015/09/25-01:12:00        ">
   <rdf:RDF xmlns:rdf="http://www.w3.org/1999/02/22-rdf-syntax-ns#">
      <rdf:Description rdf:about=""/>
   </rdf:RDF>
</x:xmpmeta>
                                                                                                    
                                                                                                    
                                                                                                    
                                                                                                    
                                                                                                    
                                                                                                    
                                                                                                    
                                                                                                    
                                                                                                    
                                                                                                    
                                                                                                    
                                                                                                    
                                                                                                    
                                                                                                    
                                                                                                    
                                                                                                    
                                                                                                    
                                                                                                    
                                                                                                    
                                                                                                    
                           
<?xpacket end="w"?></metadata>
<style type="text/css">
	.st0{fill:#00ADEE;}
	.st1{fill:#FFFFFF;}
</style>
<polygon class="st0" points="96.5,180.6 78.6,126.3 59.3,126.3 41.4,180.6 24.9,126.6 0,126.6 0.9,129.3 31,218.1 50.6,218.1 
	68.7,165.6 86.8,218.1 106.4,218.1 137.4,126.6 113.1,126.6 "/>
<polygon class="st0" points="316.6,126.6 300.1,180.6 282.2,126.3 262.8,126.3 244.9,180.6 228.4,126.6 203.5,126.6 204.5,129.3 
	234.6,218.1 254.2,218.1 272.3,165.6 290.4,218.1 309.9,218.1 341,126.6 "/>
<path class="st0" d="M153.2,198c0,9.6,7.8,17.4,17.4,17.4c9.6,0,17.4-7.8,17.4-17.4c0.3-14.8-17.4-20.9-17.4-35
	C170.6,177.2,153.2,182.4,153.2,198z"/>
<path class="st1" d="M427.6,49.5c1.2,4.7,1.6,7.3,1.7,7.7c0.7-3.3,1.2-5.9,1.6-7.7l6.2-24.9h14.4L436.7,77h-13.3L417,54.6
	c-0.4-1.3-1-3.7-1.8-7c-0.7,2.7-1.2,5.1-1.8,7L407,77h-13.3L379,24.5h14.4l6,25.1c0.7,2.6,1.2,5.3,1.6,7.8c0.5-2.7,1.2-5.4,1.8-7.8
	l6.6-25.1H421L427.6,49.5z"/>
<path class="st1" d="M464,24.5h17.9L500,77h-14.2l-2.6-9.4h-20.3l-2.7,9.4h-14.2L464,24.5z M480.1,57.4l-5.4-17.3
	c-0.2-0.8-0.8-3.2-1.8-7c-1,3.9-1.6,6.2-1.8,7l-5.3,17.3H480.1z"/>
<path class="st1" d="M493.7,24.5h15.2l10.5,29.3c0.2,0.6,0.8,2.9,1.8,7c1-4.1,1.6-6.5,1.8-7l10.4-29.3h15.2l-22,52.4h-10.9
	L493.7,24.5z"/>
<path class="st1" d="M552.8,24.5h32.1V36h-18.2v9.1h17.2v11.2h-17.2v8.9h18.2V77h-32.1V24.5z"/>
<path class="st1" d="M609.2,67.2c4,0,6.5-2.3,6.5-5.4c0-4.2-2.9-5.4-8.8-7c-9.5-2.5-14.1-6.3-14.1-14.5c0-9.8,7.1-17,18.1-17
	c5.9,0,11,1.5,15.5,4.7L622,38.2c-3.3-2.8-6.8-4.2-10-4.2c-3.5,0-5.8,1.9-5.8,4.4c0,3.7,3.6,4.5,8.4,5.8c9.3,2.5,14.4,5.9,14.4,15.6
	c0,10.9-7.8,18.5-20.1,18.5c-7.4,0-13-2.3-18.6-7.7l6.5-10.6C600.9,64.8,605,67.2,609.2,67.2z"/>
<path class="st1" d="M385.3,95.7h32.1v11.5h-18.2v9.1h17.2v11.2h-17.2v20.6h-13.9V95.7z"/>
<path class="st1" d="M467.9,141.5c-5.4,5.2-12.5,8.1-19.9,8.1c-6.4,0-12.8-2.3-17.8-6.3c-6.6-5.3-10.2-12.8-10.2-21.2
	c0-7.5,2.9-14.2,8.2-19.4c5.3-5.1,12.5-8.1,19.8-8.1c7.3,0,14.6,2.9,19.9,8.1c5.3,5.2,8.1,12,8.1,19.4
	C476,129.5,473.1,136.4,467.9,141.5z M461.7,122.1c0-8.5-5.7-15.4-13.7-15.4c-8.1,0-13.7,6.8-13.7,15.4c0,8.7,5.4,15.4,13.7,15.4
	C456.1,137.5,461.7,130.6,461.7,122.1z"/>
<path class="st1" d="M481.9,95.7h15c0.3,0,0.6,0,0.9,0c7.3,0,12.8,0.1,17.3,3.5c3.8,2.9,5.9,7.4,5.9,12.8c0,8.1-4.1,13.3-11.7,15
	l14.3,21.1h-16.1l-12-20.5v20.5h-13.4V95.7z M498,120.5c6,0,8.9-1.9,8.9-6.5c0-5.5-2.7-7.3-8.7-7.3h-2.9v13.8H498z"/>
<path class="st1" d="M427.6,191.3c1.2,4.7,1.6,7.3,1.7,7.7c0.7-3.3,1.2-5.9,1.6-7.7l6.2-24.9h14.4l-14.8,52.4h-13.3l-6.5-22.4
	c-0.4-1.3-1-3.7-1.8-7c-0.7,2.7-1.2,5.1-1.8,7l-6.4,22.4h-13.3L379,166.3h14.4l6,25.1c0.7,2.6,1.2,5.3,1.6,7.8
	c0.5-2.7,1.2-5.4,1.8-7.8l6.6-25.1H421L427.6,191.3z"/>
<path class="st1" d="M464,166.3h17.9l18.1,52.4h-14.2l-2.6-9.4h-20.3l-2.7,9.4h-14.2L464,166.3z M480.1,199.2l-5.4-17.3
	c-0.2-0.8-0.8-3.2-1.8-7c-1,3.9-1.6,6.2-1.8,7l-5.3,17.3H480.1z"/>
<path class="st1" d="M506.5,178.7h-11.7v-12.4h37.7v12.4h-11.7v40h-14.3V178.7z"/>
<path class="st1" d="M539.5,166.3h32.1v11.5h-18.2v9.1h17.2v11.2h-17.2v8.9h18.2v11.7h-32.1V166.3z"/>
<path class="st1" d="M581.1,166.3h15c0.3,0,0.6,0,0.9,0c7.3,0,12.8,0.1,17.3,3.5c3.8,2.9,5.9,7.4,5.9,12.8c0,8.1-4.1,13.3-11.7,15
	l14.3,21.1h-16.1l-12-20.5v20.5h-13.4V166.3z M597.1,191.1c6,0,8.9-1.9,8.9-6.5c0-5.5-2.7-7.3-8.7-7.3h-2.9v13.8H597.1z"/>
<path class="st1" d="M245.7,22.3c-23.8,0-43.2,19.4-43.2,43.2v1.8h24.7v-1.8c0-10.2,8.3-18.5,18.5-18.5s18.5,8.3,18.5,18.5
	s-8.3,18.5-18.5,18.5L185,84.2V0h-25.5L84.1,87.3l0,21.4l72,0l0.1,41h28.8l-0.1-41l60.7,0.1c23.8,0,43.2-19.4,43.2-43.2
	S269.5,22.3,245.7,22.3z M156.1,84.2h-36.5l36.5-42.8V84.2z"/>
</svg>
